<svg xmlns="http://www.w3.org/2000/svg" viewBox="5 14 90 84" role="img" aria-labelledby="title"><title id="title">NanoDuck Consulting Group</title>
<g fill="none" stroke="#f5f5f7" stroke-width="2.5" stroke-linecap="round" stroke-linejoin="round"><path d="M14 59c0 19 12 33 30 33 18 0 31-13 31-32V41h7"/><path d="M14 45c0 5 5 6 11 6h20M45 42v19"/></g>
<g fill="#f5f5f7"><circle cx="14" cy="59" r="2.8"/><circle cx="14" cy="45" r="2.8"/><circle cx="45" cy="42" r="2.8"/><circle cx="45" cy="51" r="2.4"/><circle cx="45" cy="61" r="2.4"/><circle cx="82" cy="41" r="2.6"/></g>
<g fill="none" stroke-width="2.5" stroke-linecap="round"><path stroke="#f5d85b" d="M45 35c0-6 5-12 12-12"/><path stroke="#f4ae54" d="M57 23h6"/><path stroke="#f27950" d="M63 23c7 0 12 5 13 12"/><path stroke="#ef654e" d="M76 35h7c4 0 5-2 5-6"/></g>
<circle cx="45" cy="35" r="2.7" fill="#f5d85b"/><circle cx="49" cy="27" r="2.6" fill="#f5d85b"/><circle cx="57" cy="23" r="2.7" fill="#f5d85b"/><circle cx="63" cy="23" r="2.8" fill="#f27950"/><circle cx="72" cy="28" r="2.5" fill="#f27950"/><circle cx="88" cy="29" r="2.9" fill="#ef654e"/>
</svg>
